<?xml version="1.0" standalone="no"?>
<!DOCTYPE svg PUBLIC "-//W3C//DTD SVG 20010904//EN"
 "http://www.w3.org/TR/2001/REC-SVG-20010904/DTD/svg10.dtd">
<svg version="1.0" xmlns="http://www.w3.org/2000/svg"
 width="350.000000pt" height="350.000000pt" viewBox="0 0 350.000000 350.000000"
 preserveAspectRatio="xMidYMid meet">
<metadata>
Created by potrace 1.11, written by Peter Selinger 2001-2013
</metadata>
<g transform="translate(0.000000,350.000000) scale(0.100000,-0.100000)"
fill="#000000" stroke="none">
<path d="M1585 3464 c-106 -12 -266 -49 -372 -85 -560 -193 -961 -653 -1085
-1245 -31 -147 -33 -456 -4 -609 39 -210 131 -439 245 -612 75 -114 105 -150
204 -252 241 -246 533 -402 889 -473 160 -32 435 -32 588 1 730 154 1253 714
1341 1434 16 137 7 384 -20 520 -48 241 -162 490 -314 687 -240 310 -597 530
-992 610 -98 20 -384 34 -480 24z m380 -54 c709 -101 1270 -657 1375 -1365 16
-103 16 -347 0 -450 -78 -532 -403 -980 -879 -1216 -612 -302 -1350 -184
-1834 295 -249 246 -411 560 -463 901 -20 129 -20 362 0 485 58 353 203 638
451 885 146 145 258 227 430 310 179 87 287 122 464 150 103 16 358 19 456 5z"/>
<path d="M1590 3230 c-742 -91 -1288 -727 -1257 -1465 16 -366 154 -688 407
-945 400 -407 1004 -534 1534 -323 194 77 333 170 487 323 213 214 342 469
395 784 20 122 15 382 -11 496 -42 185 -119 370 -211 505 -62 92 -81 115 -172
209 -206 212 -466 348 -764 402 -106 18 -311 26 -408 14z m235 -174 c-4 -66
-10 -124 -14 -128 -3 -4 -55 -8 -116 -9 l-110 -2 -17 123 c-10 68 -16 126 -13
128 7 8 192 18 239 13 l38 -3 -7 -122z m258 88 c57 -14 109 -29 117 -34 10 -6
4 -33 -30 -129 -39 -112 -44 -121 -64 -114 -11 3 -61 16 -111 28 -49 12 -90
26 -90 31 1 22 27 220 30 232 6 18 33 15 148 -14z m-610 -115 c15 -67 25 -124
22 -127 -6 -6 -150 -58 -190 -68 -18 -5 -28 9 -73 107 -50 106 -52 114 -35
126 17 13 217 82 238 83 6 0 23 -55 38 -121z m918 -5 c78 -44 159 -96 159
-102 0 -6 -140 -202 -145 -202 -1 0 -41 23 -88 50 -47 28 -90 50 -96 50 -17 0
-14 13 25 97 20 43 42 93 50 111 8 17 18 32 23 32 5 0 37 -16 72 -36z m-1244
-126 l61 -112 -41 -25 c-23 -13 -63 -41 -89 -62 -54 -45 -62 -47 -82 -18 -9
13 -19 18 -27 14 -7 -5 -10 -4 -5 3 3 5 -19 39 -49 75 -30 35 -55 68 -55 73 0
18 198 165 220 164 3 0 33 -51 67 -112z m1556 -104 c63 -61 132 -143 126 -148
-77 -61 -193 -146 -198 -144 -3 2 -39 38 -80 80 -66 70 -72 78 -60 96 23 31
144 171 149 171 3 1 31 -24 63 -55z m-1836 -111 l92 -88 -65 -78 c-35 -43 -64
-83 -64 -88 0 -5 -6 -9 -13 -9 -12 0 -132 73 -192 116 l-29 22 44 58 c54 72
123 154 130 154 3 0 47 -39 97 -87z m2104 -256 c28 -55 49 -103 47 -109 -3 -9
-228 -102 -233 -96 -2 2 -17 33 -33 71 -17 37 -40 81 -52 97 l-21 30 88 56
c48 31 97 62 108 69 26 17 31 10 96 -118z m-2008 -77 c688 -264 841 -328 904
-376 49 -37 77 -98 77 -166 1 -49 -4 -62 -30 -95 -47 -58 -89 -78 -159 -78
-39 1 -72 7 -95 19 -63 34 -199 140 -634 496 -131 107 -268 219 -305 249 -71
57 -101 92 -61 71 12 -6 149 -60 303 -120z m-352 75 c33 -19 63 -35 66 -35 4
0 26 -11 49 -25 l43 -25 -15 -38 c-8 -20 -21 -50 -28 -67 -8 -16 -19 -47 -26
-67 -6 -21 -16 -38 -22 -38 -17 0 -223 61 -231 69 -12 11 83 261 100 261 2 0
32 -16 64 -35z m-56 -359 c76 -16 109 -27 107 -36 -2 -7 -8 -59 -14 -116 l-12
-104 -116 0 c-63 0 -121 4 -128 9 -10 6 -11 29 -2 117 14 137 18 154 39 154 9
-1 66 -11 126 -24z m89 -348 c2 -7 11 -52 20 -100 9 -47 18 -92 21 -100 6 -15
-2 -18 -148 -64 -55 -17 -91 -24 -97 -18 -10 10 -33 124 -45 221 l-7 51 99 7
c54 3 105 8 113 9 31 7 41 6 44 -6z m87 -335 c6 -20 28 -64 47 -96 23 -41 32
-65 26 -74 -5 -7 -51 -40 -103 -72 l-95 -60 -23 31 c-36 49 -105 198 -99 214
3 8 12 14 19 14 8 0 41 12 73 26 57 25 122 50 136 53 3 0 12 -16 19 -36z m149
-251 c0 -5 32 -41 71 -81 l71 -73 -33 -42 c-19 -22 -48 -57 -67 -77 -18 -20
-39 -45 -46 -55 -13 -16 -15 -16 -42 4 -35 25 -101 94 -138 144 l-27 36 98 76
c97 74 113 84 113 68z m567 -35 c15 -15 15 -19 -1 -56 -18 -38 -20 -39 -72
-43 -37 -2 -54 1 -54 9 0 6 5 15 10 18 6 3 10 10 10 16 0 17 -20 9 -36 -16
-16 -24 -15 -26 20 -66 28 -30 35 -46 30 -62 -33 -113 -173 -193 -268 -153
-43 18 -45 34 -11 93 25 42 28 43 75 43 28 0 50 -3 50 -6 0 -4 -10 -22 -21
-41 -20 -33 -21 -35 -3 -31 10 1 26 17 37 35 l18 32 -36 40 -37 41 21 43 c27
55 66 92 116 112 49 18 130 14 152 -8z m277 -2 c20 -20 8 -54 -42 -120 -42
-57 -90 -85 -143 -85 -34 0 -40 -5 -88 -75 l-52 -75 -50 0 c-27 0 -49 5 -49
10 0 6 52 89 117 185 l116 175 88 0 c65 0 91 -4 103 -15z m250 3 c-33 -57 -46
-68 -83 -68 -30 0 -40 -5 -54 -30 l-18 -30 30 0 c38 0 39 -10 2 -49 -19 -21
-39 -31 -58 -31 -21 0 -34 -9 -51 -35 l-22 -35 35 0 c41 0 42 -2 14 -46 l-21
-34 -94 0 c-52 0 -94 3 -94 7 0 3 53 86 118 184 l117 179 93 0 c72 0 92 -3 86
-12z m217 -5 c-21 -39 -52 -63 -82 -63 -20 0 -38 -8 -50 -22 -26 -32 -24 -38
12 -38 l30 0 -18 -31 c-21 -36 -48 -53 -74 -46 -12 3 -26 -6 -44 -28 -14 -19
-25 -36 -25 -39 0 -3 16 -6 35 -6 19 0 35 -2 35 -5 0 -3 -10 -21 -22 -40 l-23
-35 -94 0 c-73 0 -92 3 -88 13 3 7 56 91 118 185 l113 172 93 0 c86 0 93 -1
84 -17z m240 7 c10 -6 19 -19 19 -29 0 -10 -40 -79 -90 -155 -109 -166 -123
-175 -267 -176 -58 0 -93 4 -93 10 0 6 35 64 78 128 44 64 96 143 116 175 l38
57 90 0 c49 0 98 -5 109 -10z"/>
<path d="M1691 1874 c-12 -15 -21 -37 -21 -50 0 -26 37 -72 60 -75 85 -9 130
60 79 125 -16 20 -29 26 -59 26 -30 0 -43 -6 -59 -26z"/>
<path d="M1574 1000 c-15 -22 -25 -43 -22 -46 6 -6 68 66 68 78 0 20 -22 4
-46 -32z"/>
<path d="M2226 928 c-72 -109 -84 -135 -51 -108 17 14 145 203 145 213 0 25
-30 -8 -94 -105z"/>
</g>
</svg>
